<svg xmlns="http://www.w3.org/2000/svg" xmlns:xlink="http://www.w3.org/1999/xlink" width="160" height="30.577" viewBox="0 0 160 30.577"><defs><clipPath id="a"><rect width="160" height="30.577" fill="#fff"/></clipPath></defs><g transform="translate(0 0)"><g transform="translate(0 0)" clip-path="url(#a)"><path d="M11.272.164a10.555,10.555,0,0,1,4.588.967,11.091,11.091,0,0,1,3.457,2.523,11.24,11.24,0,0,1,2.2,3.522,10.883,10.883,0,0,1,.77,4,11.782,11.782,0,0,1-.295,2.72,10.517,10.517,0,0,1-.819,2.294,11.576,11.576,0,0,1-1.2,1.917,19.676,19.676,0,0,1-2,2.154l1.492,1.673a22.77,22.77,0,0,0,3.482,2.988A28.565,28.565,0,0,0,27.1,27.064a26.558,26.558,0,0,0,4.349,1.4,19.79,19.79,0,0,0,4.064.334,20.191,20.191,0,0,0,3.188-.271,24.655,24.655,0,0,0,3.436-.814A21.793,21.793,0,0,0,45.6,26.293a19.706,19.706,0,0,0,3.255-2.1l.808-.158a18.5,18.5,0,0,1-3.346,2.87,20.9,20.9,0,0,1-3.888,2.057A23.91,23.91,0,0,1,38.247,30.2a21.545,21.545,0,0,1-4.227.429,24.257,24.257,0,0,1-4.16-.362A19.772,19.772,0,0,1,25.7,29.051a21.412,21.412,0,0,1-4.16-2.328,27.674,27.674,0,0,1-4.159-3.685l-1.6-1.69a2.293,2.293,0,0,1-.469.229,11.817,11.817,0,0,1-1.491.475,13.433,13.433,0,0,1-3.146.393,9.694,9.694,0,0,1-4.243-.934,11.194,11.194,0,0,1-3.375-2.458,11.573,11.573,0,0,1-2.245-3.49A10.382,10.382,0,0,1,0,11.534,11.913,11.913,0,0,1,.754,7.389,10.968,10.968,0,0,1,11.272.164M11.239,21.3a8.879,8.879,0,0,0,3.866-1,8.778,8.778,0,0,0,2.769-2.294,10.06,10.06,0,0,0,1.655-3.064,10.327,10.327,0,0,0,.557-3.276,10.668,10.668,0,0,0-.672-3.654A11.654,11.654,0,0,0,17.546,4.67a9.58,9.58,0,0,0-2.9-2.425,7.705,7.705,0,0,0-3.768-.934,7.4,7.4,0,0,0-3.653.9,9.047,9.047,0,0,0-2.736,2.31A10.335,10.335,0,0,0,2.867,14.679a11.256,11.256,0,0,0,1.884,3.31,9.878,9.878,0,0,0,2.867,2.392,7.337,7.337,0,0,0,3.621.918" transform="translate(0 -0.098)" fill="#fff"/><path d="M73.463,31.734a2.674,2.674,0,0,0,.065.54,3.342,3.342,0,0,0,.181.59,1.431,1.431,0,0,0,.311.475.628.628,0,0,0,.458.2v.328H71.3v-1.8a5.9,5.9,0,0,1-1.442,1.409,4.09,4.09,0,0,1-2.458.688,5.934,5.934,0,0,1-3.014-.655,4.638,4.638,0,0,1-1.7-1.671,5.973,5.973,0,0,1-.753-2.212,16.518,16.518,0,0,1-.164-2.244V22.691c0-.2-.006-.388-.016-.574a1.306,1.306,0,0,0-.131-.508.953.953,0,0,0-.344-.377,1.213,1.213,0,0,0-.655-.148V20.79l3.309-1.048V28.1a5.3,5.3,0,0,0,1.082,3.67,3.461,3.461,0,0,0,2.654,1.18,3.057,3.057,0,0,0,1.524-.377,4.508,4.508,0,0,0,1.147-.9,4.082,4.082,0,0,0,.721-1.081,2.4,2.4,0,0,0,.245-.918V22.691c0-.2-.005-.388-.016-.574a1.292,1.292,0,0,0-.131-.508.952.952,0,0,0-.344-.377,1.214,1.214,0,0,0-.656-.148V20.79l3.31-1.048Z" transform="translate(-36.371 -11.845)" fill="#fff"/><path d="M108.145,34.061V32.39l-.164.164a5.989,5.989,0,0,1-1.884,1.278,7.454,7.454,0,0,1-4.538.2,3.59,3.59,0,0,1-1.344-.737,2.914,2.914,0,0,1-.77-1.1,3.538,3.538,0,0,1-.245-1.31,3.3,3.3,0,0,1,.606-1.966,5.363,5.363,0,0,1,1.753-1.507,15.138,15.138,0,0,1,2.8-1.2q1.654-.541,3.784-1.065a4.551,4.551,0,0,0-.524-2.065,3.865,3.865,0,0,0-1.081-1.228,3.529,3.529,0,0,0-1.31-.59,5.736,5.736,0,0,0-1.18-.148,3.906,3.906,0,0,0-1.491.263,4.028,4.028,0,0,0-1.114.672,4.671,4.671,0,0,0-.8.884,6.12,6.12,0,0,0-.524.9h-.295V21.446a1.294,1.294,0,0,0,.492-.163,4.39,4.39,0,0,1,.557-.262q.491-.2,1.343-.574a6.079,6.079,0,0,1,2.392-.377,7.785,7.785,0,0,1,2.916.458,4.217,4.217,0,0,1,1.72,1.213,3.973,3.973,0,0,1,.8,1.72,9.915,9.915,0,0,1,.2,1.982v6.488a2.648,2.648,0,0,0,.295,1.228.885.885,0,0,0,.786.573v.328Zm0-3.113V26.263l-.327.065q-.787.2-1.917.525a11.908,11.908,0,0,0-2.146.852,6.932,6.932,0,0,0-1.736,1.245,2.294,2.294,0,0,0-.721,1.671,2.139,2.139,0,0,0,.852,1.736,3.435,3.435,0,0,0,2.228.688,3.721,3.721,0,0,0,1.9-.475,6.357,6.357,0,0,0,1.507-1.229Z" transform="translate(-59.52 -12.042)" fill="#fff"/><path d="M135.143,26.737V26.41a.627.627,0,0,0,.458-.2,1.747,1.747,0,0,0,.328-.459,2.382,2.382,0,0,0,.2-.574,2.825,2.825,0,0,0,.066-.573V15.531a3.451,3.451,0,0,0-.164-1.065q-.164-.508-.95-.541v-.295l3.277-1.048V24.608a2.8,2.8,0,0,0,.065.573,2.332,2.332,0,0,0,.2.574,1.728,1.728,0,0,0,.328.459.627.627,0,0,0,.458.2v.328Zm.164-17.3a1.546,1.546,0,0,1,.442-1.114,1.463,1.463,0,0,1,1.1-.459,1.566,1.566,0,0,1,1.573,1.573,1.41,1.41,0,0,1-.459,1.081,1.575,1.575,0,0,1-1.114.426,1.519,1.519,0,0,1-1.1-.426,1.436,1.436,0,0,1-.442-1.081" transform="translate(-81.046 -4.718)" fill="#fff"/><path d="M180.391,21.691h.164q.786,0,.786-.721a1.766,1.766,0,0,0-.1-.557l-2.949-7.962h-5.734l-2.851,7.831a1.414,1.414,0,0,0-.1.491.945.945,0,0,0,.23.672.67.67,0,0,0,.492.246h.164v.328h-3.637v-.328h.164a1.121,1.121,0,0,0,.836-.508,4.38,4.38,0,0,0,.672-1.2L176.034,0l7.34,19.791a5.784,5.784,0,0,0,.639,1.278,1.23,1.23,0,0,0,1.065.622h.164v.328h-4.85Zm-7.5-10.354h5.046l-2.523-6.848Z" transform="translate(-100.115 0)" fill="#fff"/><path d="M227.576,31.734a2.8,2.8,0,0,0,.065.573,1.994,1.994,0,0,0,.213.574,2.475,2.475,0,0,0,.328.459.577.577,0,0,0,.442.2v.328H224.4v-.328a.6.6,0,0,0,.426-.2,2.113,2.113,0,0,0,.344-.459,2.018,2.018,0,0,0,.213-.574,2.8,2.8,0,0,0,.066-.573V25.64a5.941,5.941,0,0,0-.328-2.064,4.283,4.283,0,0,0-.885-1.474,3.486,3.486,0,0,0-1.261-.868,3.861,3.861,0,0,0-1.425-.279,3.664,3.664,0,0,0-1.426.295,4.508,4.508,0,0,0-1.245.77,3.992,3.992,0,0,0-.885,1.114,2.765,2.765,0,0,0-.344,1.327v7.274a2.767,2.767,0,0,0,.065.573,1.994,1.994,0,0,0,.213.574,2.437,2.437,0,0,0,.328.459.575.575,0,0,0,.442.2v.328h-4.26v-.328a.6.6,0,0,0,.426-.2,2.115,2.115,0,0,0,.344-.459,1.993,1.993,0,0,0,.212-.574,2.772,2.772,0,0,0,.066-.573V22.691a3.449,3.449,0,0,0-.164-1.065q-.164-.508-.95-.541V20.79l3.277-1.048v1.8a5.928,5.928,0,0,1,.59-.573,4.981,4.981,0,0,1,.868-.59,5.332,5.332,0,0,1,1.18-.459,6.2,6.2,0,0,1,1.589-.18,5.972,5.972,0,0,1,2.622.524,5.186,5.186,0,0,1,1.77,1.36,5.4,5.4,0,0,1,1,1.835,6.565,6.565,0,0,1,.311,1.95Z" transform="translate(-128.623 -11.845)" fill="#fff"/><path d="M256.786,13.008v7.9q0,.852.033,1.54a5.137,5.137,0,0,0,.164,1.147,1.5,1.5,0,0,0,.393.7,1.013,1.013,0,0,0,.721.246,1.762,1.762,0,0,0,1.295-.656,3.06,3.06,0,0,0,.77-1.573h.295v2.392a.666.666,0,0,0-.491.2,4.31,4.31,0,0,1-.737.491,3.031,3.031,0,0,1-1.426.262,3.162,3.162,0,0,1-1.835-.459,2.606,2.606,0,0,1-.95-1.212,5.34,5.34,0,0,1-.344-1.671q-.049-.917-.05-1.868V13.008h-1.835V11.894h1.835V8.978a3.466,3.466,0,0,0-.147-1.032q-.147-.475-.967-.508V7.11l3.277-1.048v5.832h3.67v1.114Z" transform="translate(-151.673 -3.637)" fill="#fff"/><path d="M275.872,26.737V26.41a.627.627,0,0,0,.458-.2,1.738,1.738,0,0,0,.328-.459,2.366,2.366,0,0,0,.2-.574,2.827,2.827,0,0,0,.066-.573V15.531a3.45,3.45,0,0,0-.164-1.065q-.164-.508-.95-.541v-.295l3.277-1.048V24.608a2.8,2.8,0,0,0,.065.573,2.332,2.332,0,0,0,.2.574,1.728,1.728,0,0,0,.328.459.627.627,0,0,0,.458.2v.328Zm.164-17.3a1.546,1.546,0,0,1,.442-1.114,1.462,1.462,0,0,1,1.1-.459,1.566,1.566,0,0,1,1.573,1.573,1.41,1.41,0,0,1-.459,1.081,1.575,1.575,0,0,1-1.114.426,1.519,1.519,0,0,1-1.1-.426,1.436,1.436,0,0,1-.442-1.081" transform="translate(-165.484 -4.718)" fill="#fff"/><path d="M301.265,41.855a.63.63,0,0,0,.458-.2,1.763,1.763,0,0,0,.328-.459,2.392,2.392,0,0,0,.2-.573,2.809,2.809,0,0,0,.066-.574V32.225a4.535,4.535,0,0,1-1.442,1.212,4.937,4.937,0,0,1-2.326.459,7.079,7.079,0,0,1-3.031-.606,6.157,6.157,0,0,1-2.146-1.622,6.722,6.722,0,0,1-1.262-2.294,8.53,8.53,0,0,1-.41-2.621,7.548,7.548,0,0,1,1.818-4.866,6.533,6.533,0,0,1,2.13-1.606,6.462,6.462,0,0,1,2.834-.606,5.231,5.231,0,0,1,2.277.541,5.706,5.706,0,0,1,1.786,1.261l1.933-2.065v20.64a2.757,2.757,0,0,0,.066.574,2.342,2.342,0,0,0,.2.573,1.752,1.752,0,0,0,.327.459.63.63,0,0,0,.459.2v.328h-4.26Zm-2.523-9.073a3.291,3.291,0,0,0,1.327-.278,4.005,4.005,0,0,0,1.147-.754,3.55,3.55,0,0,0,.8-1.114,3.285,3.285,0,0,0,.295-1.393V24.787a3.8,3.8,0,0,0-.36-1.687,4.115,4.115,0,0,0-.917-1.245,3.837,3.837,0,0,0-1.278-.77,4.211,4.211,0,0,0-1.442-.262,3.809,3.809,0,0,0-1.917.475,4.436,4.436,0,0,0-1.409,1.261,5.805,5.805,0,0,0-.868,1.769,6.919,6.919,0,0,0-.295,2,8.315,8.315,0,0,0,.328,2.294,6.67,6.67,0,0,0,.967,2.048,5.7,5.7,0,0,0,1.54,1.491,3.921,3.921,0,0,0,2.081.622" transform="translate(-175.018 -11.648)" fill="#fff"/><path d="M341.766,31.734a2.674,2.674,0,0,0,.065.54,3.337,3.337,0,0,0,.181.59,1.431,1.431,0,0,0,.311.475.629.629,0,0,0,.458.2v.328H339.6v-1.8a5.9,5.9,0,0,1-1.442,1.409,4.09,4.09,0,0,1-2.458.688,5.933,5.933,0,0,1-3.014-.655,4.638,4.638,0,0,1-1.7-1.671,5.974,5.974,0,0,1-.753-2.212,16.519,16.519,0,0,1-.164-2.244V22.691c0-.2-.006-.388-.016-.574a1.306,1.306,0,0,0-.131-.508.954.954,0,0,0-.344-.377,1.213,1.213,0,0,0-.655-.148V20.79l3.309-1.048V28.1a5.3,5.3,0,0,0,1.082,3.67,3.461,3.461,0,0,0,2.654,1.18,3.057,3.057,0,0,0,1.524-.377,4.508,4.508,0,0,0,1.147-.9,4.083,4.083,0,0,0,.721-1.081,2.4,2.4,0,0,0,.245-.918V22.691c0-.2-.005-.388-.016-.574a1.292,1.292,0,0,0-.131-.508.952.952,0,0,0-.344-.377,1.214,1.214,0,0,0-.656-.148V20.79l3.31-1.048Z" transform="translate(-197.353 -11.845)" fill="#fff"/><path d="M368.478,27.442a8.061,8.061,0,0,0,.557,2.179,6.3,6.3,0,0,0,1.13,1.819,5.29,5.29,0,0,0,1.72,1.262,5.512,5.512,0,0,0,2.359.475,5.935,5.935,0,0,0,1.524-.213,6.169,6.169,0,0,0,1.491-.606,5.269,5.269,0,0,0,1.229-.966,3.032,3.032,0,0,0,.737-1.294h.295v2.458a.962.962,0,0,0-.442.131c-.164.087-.355.2-.573.327a12.522,12.522,0,0,1-1.77.836,8.141,8.141,0,0,1-2.949.443,9.124,9.124,0,0,1-2.8-.426,6.6,6.6,0,0,1-2.343-1.311,6.325,6.325,0,0,1-1.622-2.261,8.082,8.082,0,0,1-.606-3.277,7.826,7.826,0,0,1,.41-2.457,6.76,6.76,0,0,1,1.245-2.245,6.232,6.232,0,0,1,2.146-1.622,7.286,7.286,0,0,1,3.146-.622,6.89,6.89,0,0,1,2.867.557,5.525,5.525,0,0,1,2.031,1.54,6.537,6.537,0,0,1,1.2,2.327,10.474,10.474,0,0,1,.393,2.949Zm4.751-6.291a4.058,4.058,0,0,0-1.982.459,4.815,4.815,0,0,0-1.425,1.18,5.459,5.459,0,0,0-.918,1.638,7.934,7.934,0,0,0-.426,1.835h9.338a6.506,6.506,0,0,0-.344-1.868,5.617,5.617,0,0,0-.869-1.638,4.135,4.135,0,0,0-3.375-1.606" transform="translate(-219.848 -12.042)" fill="#fff"/><path d="M144.444,71.388v-3.3h1.306a1.2,1.2,0,0,1,.816.248,1.014,1.014,0,0,1,.084,1.306.946.946,0,0,1-.564.3.708.708,0,0,1,.37.365l.581,1.077h-.422l-.571-1.058a.612.612,0,0,0-.248-.267.83.83,0,0,0-.37-.07h-.6v1.395Zm.384-1.7h.866q.777,0,.777-.646t-.777-.637h-.866Z" transform="translate(-86.666 -40.853)" fill="#fff"/><path d="M156.719,71.388v-3.3H158.8v.323h-1.708v1.142h1.61v.323h-1.61v1.189H158.8v.323Z" transform="translate(-94.032 -40.853)" fill="#fff"/><path d="M168.673,71.366a2.3,2.3,0,0,1-.7-.1,1.59,1.59,0,0,1-.543-.293l.135-.309a1.754,1.754,0,0,0,.5.271,1.883,1.883,0,0,0,.608.089,1.021,1.021,0,0,0,.625-.157.5.5,0,0,0,.2-.414.4.4,0,0,0-.147-.328,1.154,1.154,0,0,0-.494-.192l-.487-.1a1.315,1.315,0,0,1-.658-.306.759.759,0,0,1-.218-.569.881.881,0,0,1,.152-.515,1,1,0,0,1,.424-.342,1.518,1.518,0,0,1,.627-.122,1.768,1.768,0,0,1,.618.106,1.31,1.31,0,0,1,.482.3l-.136.3a1.37,1.37,0,0,0-.445-.279,1.5,1.5,0,0,0-.524-.086.936.936,0,0,0-.59.171.543.543,0,0,0-.22.452.467.467,0,0,0,.138.356.9.9,0,0,0,.452.192l.487.1a1.532,1.532,0,0,1,.7.3.682.682,0,0,1,.227.541.828.828,0,0,1-.148.487.958.958,0,0,1-.421.327,1.642,1.642,0,0,1-.648.117" transform="translate(-100.457 -40.789)" fill="#fff"/><path d="M179.567,71.388V68.42h-1.2v-.332h2.785v.332h-1.2v2.968Z" transform="translate(-107.021 -40.853)" fill="#fff"/><path d="M189.146,71.388l1.456-3.3h.328l1.456,3.3h-.4l-.365-.842H189.9l-.36.842Zm1.615-2.85-.716,1.685h1.442l-.716-1.685Z" transform="translate(-113.488 -40.853)" fill="#fff"/><path d="M204.128,71.43a1.322,1.322,0,0,1-.988-.344,1.378,1.378,0,0,1-.337-1V68.088h.384v1.975q0,1.025.941,1.025t.932-1.025V68.088h.384v1.994a1.383,1.383,0,0,1-.335,1,1.305,1.305,0,0,1-.98.344" transform="translate(-121.682 -40.853)" fill="#fff"/><path d="M215.828,71.388v-3.3h1.306a1.2,1.2,0,0,1,.817.248,1.013,1.013,0,0,1,.084,1.306.944.944,0,0,1-.564.3.709.709,0,0,1,.37.365l.58,1.077H218l-.571-1.058a.61.61,0,0,0-.248-.267.83.83,0,0,0-.37-.07h-.6v1.395Zm.384-1.7h.866q.777,0,.777-.646t-.777-.637h-.866Z" transform="translate(-129.497 -40.853)" fill="#fff"/><path d="M227.179,71.388l1.456-3.3h.328l1.456,3.3h-.4l-.365-.842h-1.718l-.36.842Zm1.615-2.85-.716,1.685h1.442l-.716-1.685Z" transform="translate(-136.307 -40.853)" fill="#fff"/><path d="M240.952,71.388v-3.3h.3l1.989,2.654V68.088h.356v3.3h-.29l-1.994-2.664v2.664Z" transform="translate(-144.571 -40.853)" fill="#fff"/><path d="M254.286,71.388V68.42h-1.2v-.332h2.785v.332h-1.2v2.968Z" transform="translate(-151.853 -40.853)" fill="#fff"/></g></g></svg>